# xmcd
#
# Track frame offsets: 
#        150
#        13115
#        27400
#        46085
#        58515
#        73152
#        86472
#        100237
#        113350
#        126495
#        139655
#        152515
#        167325
#        182237
#        194202
#        207632
#        222780
#        234545
#        249377
#        262047
#        274480
#        286737
#        299097
#        311755
#        326572
#
# Disc length: 4493 seconds
#
# Revision: 2
# Processed by: cddbd v1.5.2PL0 Copyright (c) Steve Scherf et al.
# Submitted via: ExactAudioCopy v0.95b4
#
DISCID=81118b19
DTITLE=Hadda Brooks - That's My Desire
DYEAR=1994
DGENRE=Vocal Jazz
TTITLE0=Swingin' The Boogie
TTITLE1=Anytime, Anyplace, Anywhere
TTITLE2=Dream
TTITLE3=That's My Desire
TTITLE4=Romance In The Dark
TTITLE5=Bully Wully Boogie
TTITLE6=Out of The Blue
TTITLE7=Honey, Honey, Honey
TTITLE8=Kepp Your Hand On Your Heart
TTITLE9=Bewildered
TTITLE10=Jukebox Boogie
TTITLE11=Trust In Me
TTITLE12=Don't Take Your Love From Me
TTITLE13=Schubert's Serenade In Boogie
TTITLE14=Tough On My Heart
TTITLE15=When A Woman Cries
TTITLE16=Say It With A Kiss
TTITLE17=I've Got My Love To Keep Me Warm
TTITLE18=I Feel So Good
TTITLE19=It All Depends On You
TTITLE20=Don't Call It Love
TTITLE21=Boogie Celeste
TTITLE22=Don't You Think I Ought To Know
TTITLE23=You Won't Let Me Go
TTITLE24=Tootsie Timesie
EXTD=
EXTT0=
EXTT1=
EXTT2=
EXTT3=
EXTT4=
EXTT5=
EXTT6=
EXTT7=
EXTT8=
EXTT9=
EXTT10=
EXTT11=
EXTT12=
EXTT13=
EXTT14=
EXTT15=
EXTT16=
EXTT17=
EXTT18=
EXTT19=
EXTT20=
EXTT21=
EXTT22=
EXTT23=
EXTT24=
PLAYORDER=
